<?xml version="1.0" encoding="utf-8"?>
<!-- Generator: Adobe Illustrator 21.1.0, SVG Export Plug-In . SVG Version: 6.00 Build 0)  -->
<svg version="1.1" id="Layer_1" xmlns="http://www.w3.org/2000/svg" xmlns:xlink="http://www.w3.org/1999/xlink" x="0px" y="0px"
	 width="50px" height="50px" viewBox="0 0 50 50" style="enable-background:new 0 0 50 50;" xml:space="preserve">
<style type="text/css">
	.st0{fill:#E5604E;}
	.st1{fill:#EFEFEF;}
	.st2{fill:#B2473B;}
	.st3{fill:#FF7058;}
	.st4{fill:#C1C1C1;}
</style>
<g>
	<circle class="st0" cx="25" cy="25" r="25"/>
	<rect x="11.445" y="18.75" class="st1" width="27.109" height="20.43"/>
	<rect x="11.445" y="12.695" class="st2" width="27.109" height="6.055"/>
	<circle class="st3" cx="27.851" cy="23.008" r="1.523"/>
	<circle class="st3" cx="27.851" cy="28.477" r="1.523"/>
	<circle class="st3" cx="27.851" cy="33.945" r="1.523"/>
	<g>
		<g>
			<path class="st4" d="M14.336,10.82c-0.313,0-0.586,0.273-0.586,0.586v2.617c0,0.313,0.273,0.586,0.586,0.586
				c0.313,0,0.586-0.273,0.586-0.586v-2.617C14.883,11.055,14.648,10.82,14.336,10.82z"/>
			<path class="st4" d="M18.594,10.82c-0.313,0-0.586,0.273-0.586,0.586v2.617c0,0.313,0.273,0.586,0.586,0.586
				s0.586-0.273,0.586-0.586v-2.617C19.18,11.055,18.906,10.82,18.594,10.82z"/>
			<path class="st4" d="M22.852,10.82L22.852,10.82c-0.313,0-0.586,0.273-0.586,0.586v2.617c0,0.313,0.273,0.586,0.586,0.586l0,0
				c0.313,0,0.586-0.273,0.586-0.586v-2.617C23.437,11.055,23.164,10.82,22.852,10.82z"/>
			<path class="st4" d="M27.148,10.82L27.148,10.82c-0.313,0-0.586,0.273-0.586,0.586v2.617c0,0.313,0.273,0.586,0.586,0.586l0,0
				c0.313,0,0.586-0.273,0.586-0.586v-2.617C27.695,11.055,27.461,10.82,27.148,10.82z"/>
			<path class="st4" d="M31.406,10.82L31.406,10.82c-0.313,0-0.586,0.273-0.586,0.586v2.617c0,0.313,0.273,0.586,0.586,0.586l0,0
				c0.313,0,0.586-0.273,0.586-0.586v-2.617C31.992,11.055,31.719,10.82,31.406,10.82z"/>
			<path class="st4" d="M35.664,10.82c-0.313,0-0.586,0.273-0.586,0.586v2.617c0,0.313,0.273,0.586,0.586,0.586
				s0.586-0.273,0.586-0.586v-2.617C36.25,11.055,36.016,10.82,35.664,10.82z"/>
			<circle class="st4" cx="16.406" cy="23.008" r="1.523"/>
			<circle class="st4" cx="22.148" cy="23.008" r="1.523"/>
		</g>
		<g>
			<circle class="st4" cx="33.594" cy="23.008" r="1.523"/>
			<circle class="st4" cx="16.406" cy="28.477" r="1.523"/>
			<circle class="st4" cx="22.148" cy="28.477" r="1.523"/>
		</g>
		<g>
			<circle class="st4" cx="33.594" cy="28.477" r="1.523"/>
			<circle class="st4" cx="16.406" cy="33.945" r="1.523"/>
			<circle class="st4" cx="22.148" cy="33.945" r="1.523"/>
		</g>
		<circle class="st4" cx="33.594" cy="33.945" r="1.523"/>
	</g>
</g>
</svg>
